<?xml version="1.0" encoding="UTF-8" standalone="no"?>
<!DOCTYPE svg PUBLIC "-//W3C//DTD SVG 1.1//EN"
 "http://www.w3.org/Graphics/SVG/1.1/DTD/svg11.dtd">
<!-- Generated by graphviz version 3.0.0 (20220226.1711)
 -->
<!-- Title: dependencies Pages: 1 -->
<svg width="1311pt" height="247pt"
 viewBox="0.00 0.00 1311.00 246.80" xmlns="http://www.w3.org/2000/svg" xmlns:xlink="http://www.w3.org/1999/xlink">
<g id="graph0" class="graph" transform="scale(1 1) rotate(0) translate(4 242.8)">
<title>dependencies</title>
<polygon fill="white" stroke="transparent" points="-4,4 -4,-242.8 1307,-242.8 1307,4 -4,4"/>
<text text-anchor="middle" x="651.5" y="-8.2" font-family="sans-serif" font-size="14.00">dependencies</text>
<g id="clust1" class="cluster">
<title>cluster_AppModule</title>
<polygon fill="none" stroke="black" stroke-dasharray="1,5" points="8,-32.8 8,-230.8 1295,-230.8 1295,-32.8 8,-32.8"/>
</g>
<g id="clust2" class="cluster">
<title>cluster_AppModule_declarations</title>
<polygon fill="none" stroke="black" points="168,-40.8 168,-92.8 1287,-92.8 1287,-40.8 168,-40.8"/>
</g>
<g id="clust12" class="cluster">
<title>cluster_AppModule_bootstrap</title>
<polygon fill="none" stroke="black" points="640,-170.8 640,-222.8 764,-222.8 764,-170.8 640,-170.8"/>
</g>
<g id="clust10" class="cluster">
<title>cluster_AppModule_imports</title>
<polygon fill="none" stroke="black" points="16,-40.8 16,-92.8 160,-92.8 160,-40.8 16,-40.8"/>
</g>
<!-- AppComponent -->
<g id="node1" class="node">
<title>AppComponent</title>
<polygon fill="#ffffb3" stroke="black" points="1278.94,-84.8 1173.06,-84.8 1173.06,-48.8 1278.94,-48.8 1278.94,-84.8"/>
<text text-anchor="middle" x="1226" y="-62.6" font-family="Times,serif" font-size="14.00">AppComponent</text>
</g>
<!-- AppModule -->
<g id="node8" class="node">
<title>AppModule</title>
<polygon fill="#8dd3c7" stroke="black" points="743.66,-149.8 740.66,-153.8 719.66,-153.8 716.66,-149.8 660.34,-149.8 660.34,-113.8 743.66,-113.8 743.66,-149.8"/>
<text text-anchor="middle" x="702" y="-127.6" font-family="Times,serif" font-size="14.00">AppModule</text>
</g>
<!-- AppComponent&#45;&gt;AppModule -->
<g id="edge1" class="edge">
<title>AppComponent&#45;&gt;AppModule</title>
<path fill="none" stroke="black" d="M1226,-85.09C1226,-107.01 1226,-140.8 1226,-140.8 1226,-140.8 754,-140.8 754,-140.8"/>
<polygon fill="black" stroke="black" points="754,-137.3 744,-140.8 754,-144.3 754,-137.3"/>
</g>
<!-- HomePageComponent -->
<g id="node2" class="node">
<title>HomePageComponent</title>
<polygon fill="#ffffb3" stroke="black" points="1155.26,-84.8 1012.74,-84.8 1012.74,-48.8 1155.26,-48.8 1155.26,-84.8"/>
<text text-anchor="middle" x="1084" y="-62.6" font-family="Times,serif" font-size="14.00">HomePageComponent</text>
</g>
<!-- HomePageComponent&#45;&gt;AppModule -->
<g id="edge2" class="edge">
<title>HomePageComponent&#45;&gt;AppModule</title>
<path fill="none" stroke="black" d="M1084,-84.91C1084,-104.14 1084,-131.8 1084,-131.8 1084,-131.8 753.97,-131.8 753.97,-131.8"/>
<polygon fill="black" stroke="black" points="753.97,-128.3 743.97,-131.8 753.97,-135.3 753.97,-128.3"/>
</g>
<!-- LoginComponent -->
<g id="node3" class="node">
<title>LoginComponent</title>
<polygon fill="#ffffb3" stroke="black" points="994.27,-84.8 879.73,-84.8 879.73,-48.8 994.27,-48.8 994.27,-84.8"/>
<text text-anchor="middle" x="937" y="-62.6" font-family="Times,serif" font-size="14.00">LoginComponent</text>
</g>
<!-- LoginComponent&#45;&gt;AppModule -->
<g id="edge3" class="edge">
<title>LoginComponent&#45;&gt;AppModule</title>
<path fill="none" stroke="black" d="M937,-84.83C937,-101.2 937,-122.8 937,-122.8 937,-122.8 753.74,-122.8 753.74,-122.8"/>
<polygon fill="black" stroke="black" points="753.74,-119.3 743.74,-122.8 753.74,-126.3 753.74,-119.3"/>
</g>
<!-- NovaSenhaComponent -->
<g id="node4" class="node">
<title>NovaSenhaComponent</title>
<polygon fill="#ffffb3" stroke="black" points="861.87,-84.8 716.13,-84.8 716.13,-48.8 861.87,-48.8 861.87,-84.8"/>
<text text-anchor="middle" x="789" y="-62.6" font-family="Times,serif" font-size="14.00">NovaSenhaComponent</text>
</g>
<!-- NovaSenhaComponent&#45;&gt;AppModule -->
<g id="edge4" class="edge">
<title>NovaSenhaComponent&#45;&gt;AppModule</title>
<path fill="none" stroke="black" d="M729.95,-84.91C729.95,-84.91 729.95,-103.79 729.95,-103.79"/>
<polygon fill="black" stroke="black" points="726.45,-103.79 729.95,-113.79 733.45,-103.79 726.45,-103.79"/>
</g>
<!-- PesquisarLivroComponent -->
<g id="node5" class="node">
<title>PesquisarLivroComponent</title>
<polygon fill="#ffffb3" stroke="black" points="698.1,-84.8 531.9,-84.8 531.9,-48.8 698.1,-48.8 698.1,-84.8"/>
<text text-anchor="middle" x="615" y="-62.6" font-family="Times,serif" font-size="14.00">PesquisarLivroComponent</text>
</g>
<!-- PesquisarLivroComponent&#45;&gt;AppModule -->
<g id="edge5" class="edge">
<title>PesquisarLivroComponent&#45;&gt;AppModule</title>
<path fill="none" stroke="black" d="M679.11,-84.91C679.11,-84.91 679.11,-103.79 679.11,-103.79"/>
<polygon fill="black" stroke="black" points="675.61,-103.79 679.11,-113.79 682.61,-103.79 675.61,-103.79"/>
</g>
<!-- VericaEmailComponent -->
<g id="node6" class="node">
<title>VericaEmailComponent</title>
<polygon fill="#ffffb3" stroke="black" points="514.07,-84.8 361.93,-84.8 361.93,-48.8 514.07,-48.8 514.07,-84.8"/>
<text text-anchor="middle" x="438" y="-62.6" font-family="Times,serif" font-size="14.00">VericaEmailComponent</text>
</g>
<!-- VericaEmailComponent&#45;&gt;AppModule -->
<g id="edge6" class="edge">
<title>VericaEmailComponent&#45;&gt;AppModule</title>
<path fill="none" stroke="black" d="M438,-84.83C438,-101.2 438,-122.8 438,-122.8 438,-122.8 650.17,-122.8 650.17,-122.8"/>
<polygon fill="black" stroke="black" points="650.17,-126.3 660.17,-122.8 650.17,-119.3 650.17,-126.3"/>
</g>
<!-- VerificaCodigoComponent -->
<g id="node7" class="node">
<title>VerificaCodigoComponent</title>
<polygon fill="#ffffb3" stroke="black" points="344.41,-84.8 175.59,-84.8 175.59,-48.8 344.41,-48.8 344.41,-84.8"/>
<text text-anchor="middle" x="260" y="-62.6" font-family="Times,serif" font-size="14.00">VerificaCodigoComponent</text>
</g>
<!-- VerificaCodigoComponent&#45;&gt;AppModule -->
<g id="edge7" class="edge">
<title>VerificaCodigoComponent&#45;&gt;AppModule</title>
<path fill="none" stroke="black" d="M260,-84.91C260,-104.14 260,-131.8 260,-131.8 260,-131.8 650.02,-131.8 650.02,-131.8"/>
<polygon fill="black" stroke="black" points="650.02,-135.3 660.02,-131.8 650.02,-128.3 650.02,-135.3"/>
</g>
<!-- AppComponent  -->
<g id="node10" class="node">
<title>AppComponent </title>
<polygon fill="#80b1d3" stroke="black" points="756.44,-214.8 647.56,-214.8 647.56,-178.8 756.44,-178.8 756.44,-214.8"/>
<text text-anchor="middle" x="702" y="-192.6" font-family="Times,serif" font-size="14.00">AppComponent </text>
</g>
<!-- AppModule&#45;&gt;AppComponent  -->
<g id="edge9" class="edge">
<title>AppModule&#45;&gt;AppComponent </title>
<path fill="none" stroke="black" stroke-dasharray="1,5" d="M702,-149.91C702,-149.91 702,-168.79 702,-168.79"/>
<polygon fill="black" stroke="black" points="698.5,-168.79 702,-178.79 705.5,-168.79 698.5,-168.79"/>
</g>
<!-- AppRoutingModule -->
<g id="node9" class="node">
<title>AppRoutingModule</title>
<polygon fill="#8dd3c7" stroke="black" points="152.28,-84.8 149.28,-88.8 128.28,-88.8 125.28,-84.8 23.72,-84.8 23.72,-48.8 152.28,-48.8 152.28,-84.8"/>
<text text-anchor="middle" x="88" y="-62.6" font-family="Times,serif" font-size="14.00">AppRoutingModule</text>
</g>
<!-- AppRoutingModule&#45;&gt;AppModule -->
<g id="edge8" class="edge">
<title>AppRoutingModule&#45;&gt;AppModule</title>
<path fill="none" stroke="black" d="M88,-85.09C88,-107.01 88,-140.8 88,-140.8 88,-140.8 650.28,-140.8 650.28,-140.8"/>
<polygon fill="black" stroke="black" points="650.28,-144.3 660.28,-140.8 650.28,-137.3 650.28,-144.3"/>
</g>
</g>
</svg>
